<?xml version="1.0" encoding="UTF-8"?><svg id="Layer_2" xmlns="http://www.w3.org/2000/svg" xmlns:xlink="http://www.w3.org/1999/xlink" viewBox="0 0 71.52 71.52"><defs><style>.cls-1{fill:#fff;}.cls-2{fill:#131134;}.cls-3{clip-path:url(#clippath);}.cls-4{fill:none;}</style><clipPath id="clippath"><circle class="cls-4" cx="35.76" cy="35.76" r="32.2"/></clipPath></defs><g id="Layer_1-2"><g><circle class="cls-1" cx="35.76" cy="35.76" r="35.76"/><g class="cls-3"><g><polygon class="cls-2" points="35.76 35.08 3.56 50.61 3.56 72.81 35.76 72.81 67.97 72.81 67.97 50.61 35.76 35.08"/><g><ellipse class="cls-2" cx="35.76" cy="25.31" rx="18.53" ry="20.65"/><path class="cls-1" d="M35.76,6.22c9.37,0,16.97,8.55,16.97,19.09s-7.6,19.09-16.97,19.09-16.97-8.55-16.97-19.09S26.39,6.22,35.76,6.22m0-3.12c-11.08,0-20.09,9.96-20.09,22.21s9.01,22.21,20.09,22.21,20.09-9.96,20.09-22.21S46.84,3.09,35.76,3.09h0Z"/></g></g></g></g></g></svg>