<?xml version="1.0" encoding="UTF-8"?><svg id="Layer_2" xmlns="http://www.w3.org/2000/svg" viewBox="0 0 110.58 115.81"><defs><style>.cls-1{fill:#fff;}.cls-2{stroke-width:1.25px;}.cls-2,.cls-3{fill:none;stroke:#fff;stroke-miterlimit:10;}.cls-3{stroke-width:.71px;}</style></defs><g id="Layer_1-2"><g><rect class="cls-3" x=".35" y=".35" width="109.87" height="115.1"/><rect class="cls-2" x="6.75" y="7.05" width="97.08" height="101.7"/><path class="cls-1" d="M70.66,49.48l18.02-19.82h-6.13l-21.49,23.1V13.82h-7.8v15.89H21.45v5.06h28.4l-28.97,35.42v4.43h31.89c-.09,.95-.18,1.88-.29,2.75-.52,4.18-1.46,7.61-2.84,10.29-1.29,2.51-3.13,4.4-5.47,5.72v10.53c.88-.34,1.71-.71,2.49-1.13,4.09-2.22,7.16-5.4,9.23-9.54,2.07-4.14,3.44-9.03,4.13-14.66,.69-5.63,1.03-11.82,1.03-18.56v-.89l5.99-6.25,16.25,21.72h6.39l-19.04-25.14Zm-17.4,13.06c0,2.5-.06,4.82-.16,7.02H28.03l25.23-31.4v24.38Z"/></g></g></svg>