<?xml version="1.0" encoding="UTF-8"?><svg id="Layer_2" xmlns="http://www.w3.org/2000/svg" viewBox="0 0 350.09 294.82"><defs><style>.cls-1{fill:#ce3f8e;}.cls-2{fill:#43338e;}</style></defs><g id="Layer_1-2"><g><rect class="cls-2" x="47.88" y="84.75" width="32.38" height="32.38"/><rect class="cls-2" x="49.85" y="230.64" width="32.38" height="32.38"/><rect class="cls-2" x="30.68" y="129.91" width="18.86" height="18.86"/><rect class="cls-2" x="246.51" y="165.17" width="18.86" height="18.86"/><rect class="cls-2" x="246.51" y="123.31" width="18.86" height="18.86"/><rect class="cls-2" x="60.98" y="157.41" width="10.13" height="10.13"/><rect class="cls-2" x="19.21" y="59.62" width="10.13" height="10.13"/><rect class="cls-2" x="82.23" y="218" width="10.13" height="10.13"/><rect class="cls-2" x="63.75" y="261.79" width="33.03" height="33.03"/><rect class="cls-2" x="81.31" y="251.83" width="33.03" height="33.03"/><rect class="cls-2" x="260.86" y="213.61" width="41.32" height="41.32"/><rect class="cls-2" x="248.86" y="253.42" width="33.03" height="33.03"/><rect class="cls-2" x="317.07" y="254.21" width="33.03" height="33.03"/><rect class="cls-2" x="132.97" y="255.41" width="33.03" height="33.03"/><rect class="cls-2" x="25.62" y="218" width="10.13" height="10.13"/><rect class="cls-2" x="259.44" y="189.47" width="10.13" height="10.13"/><rect class="cls-1" x="296.78" y="212.94" width="10.13" height="10.13"/><rect class="cls-1" x="275.91" y="236.43" width="31.61" height="31.61"/><rect class="cls-2" x="291.71" y="261.79" width="10.13" height="10.13"/><rect class="cls-2" x="20.55" y="193.3" width="10.13" height="10.13"/><rect class="cls-2" y="246.83" width="18.6" height="18.6"/><rect class="cls-2" x="24.27" y="254.31" width="32.84" height="32.84"/><rect class="cls-2" x="28.5" width="10.13" height="10.13"/></g></g></svg>